<svg width="70" height="70" viewBox="0 0 70 70" fill="none" xmlns="http://www.w3.org/2000/svg">
<path d="M34.7 0C15.6 0 0 15.6 0 34.7C0 53.8 15.6 69.4 34.7 69.4C53.8 69.4 69.4 53.8 69.4 34.7C69.4 15.6 53.8 0 34.7 0ZM34.7 68C16.3 68 1.4 53.1 1.4 34.7C1.4 16.3 16.3 1.4 34.7 1.4C53.1 1.4 68 16.3 68 34.7C68 53.1 53.1 68 34.7 68Z" fill="#070B08"/>
<path d="M30.4 21.2L39.9 22.2C41 22.3 42.7 21.7 43.5 20.4C42.8 20.8 41.6 21 40.6 20.9L31.3 19.9C30.2 19.8 28.5 20.4 27.7 21.7C28.3 21.3 29.5 21.1 30.4 21.2Z" fill="#070B08"/>
<path d="M28.7 23.8L38.2 24.8C39.3 24.9 41 24.3 41.8 23C41.1 23.4 39.9 23.6 38.9 23.5L29.6 22.5C28.5 22.4 26.8 23 26 24.3C26.6 23.9 27.7 23.7 28.7 23.8Z" fill="#070B08"/>
<path d="M41.5 29.3V39.1V39.2C41.5 40.2 41.2 41.1 40.7 42L42.9 45.8V30.2V29.9C43 29.1 43.2 28.3 43.5 27.6L43.8 27C42.5 27.1 41.5 28.1 41.5 29.3Z" fill="#070B08"/>
<path d="M41.8 47.4L34.7 33.7L31.3 27H29.7L34.7 36.7L41.3 49.5H43.8C43 49 42.2 48.3 41.8 47.4Z" fill="#070B08"/>
<path d="M34.7 39.8L28.1 27H25.6C26.4 27.5 27.1 28.2 27.6 29.1V29.2L34.7 42.9L38.1 49.6H39.7L34.7 39.8Z" fill="#070B08"/>
<path d="M27.9 47.2V37.4V37.3C27.9 36.3 28.2 35.4 28.7 34.5L26.5 30.7V46.3V46.6C26.4 47.4 26.2 48.2 25.9 48.9L25.6 49.5C26.9 49.5 27.9 48.5 27.9 47.2Z" fill="#070B08"/>
</svg>
